/* XPM */
static char *result[] = {
/* columns rows colors chars-per-pixel */
"32 32 8 1 ",
"  c #100B0F",
". c #31241C",
"X c #4F423A",
"o c #7C6F64",
"O c #961C1C",
"+ c #FF2A00",
"@ c #D38381",
"# c None",
/* pixels */
"########        ################",
"########        ################",
"######  ++++OO  ################",
"######  ++++OO  ################",
"####  OO++    ##################",
"####  OO++    ##################",
"##  XXooooooXX  ################",
"##  XXooooooXX  ################",
"##  XXoo    oo  ##########    ##",
"##  XXoo    oo  ##########    ##",
"  @@@@XX++oooo  ######    XXoo  ",
"  @@@@XX++oooo  ######    XXoo  ",
"##  ..ooooooooXX      XXooooXX  ",
"##  ..ooooooooXX      XXooooXX  ",
"##  ooooooooooooXXXXoooooooo..  ",
"##  ooooooooooooXXXXoooooooo..  ",
"  XXooooooooooooXXooooooXX..  ##",
"  XXooooooooooooXXooooooXX..  ##",
"  ooooooooooXXooooXX    XXooXX  ",
"  ooooooooooXXooooXX    XXooXX  ",
"  ooXXooXXoo..oooooooo  ooXX..  ",
"  ooXXooXXoo..oooooooo  ooXX..  ",
"  XXooXXooXXXX        ..XXXX  ##",
"  XXooXXooXXXX        ..XXXX  ##",
"##  ..XXXXXXXXXXXX....XX..  ####",
"##  ..XXXXXXXXXXXX....XX..  ####",
"####    ..XXXXXX..  ..    ######",
"####    ..XXXXXX..  ..    ######",
"########          XX  ##########",
"########          XX  ##########",
"######  @@oo  @@@@oo  ##########",
"######  @@oo  @@@@oo  ##########"
};
