/* XPM */
static char *result[] = {
/* columns rows colors chars-per-pixel */
"32 32 8 1 ",
"  c #100B0F",
". c #31241C",
"X c #4F423A",
"o c #7C6F64",
"O c #961C1C",
"+ c #FF2A00",
"@ c #D38381",
"# c None",
/* pixels */
"##############      ############",
"##############      ############",
"##############  OO++  ##########",
"##############  OO++  ##########",
"################  ++OO  ########",
"################  ++OO  ########",
"##############  XXooooXX  ######",
"##############  XXooooXX  ######",
"############  XXooooooooXX  ####",
"############  XXooooooooXX  ####",
"############  XXoooooooooo  @@##",
"############  XXoooooooooo  @@##",
"####    ####  XXoooooooooo  ####",
"####    ####  XXoooooooooo  ####",
"##  ..XX    XXXXooXXoooooo  ####",
"##  ..XX    XXXXooXXoooooo  ####",
"##  XXooooXXXXooXXoooo  ooXX  ##",
"##  XXooooXXXXooXXoooo  ooXX  ##",
"##  XXooooooooooooXX  oooooo  ##",
"##  XXooooooooooooXX  oooooo  ##",
"##  XXXXoooooooooo  ooooXX    ##",
"##  XXXXoooooooooo  ooooXX    ##",
"##  XXXXXXooooooooXXXX    ..  ##",
"##  XXXXXXooooooooXXXX    ..  ##",
"####  XXXXXXXXooooooooXXXX  ####",
"####  XXXXXXXXooooooooXXXX  ####",
"####  ..XXXXXXXXXXXXXXXX..  ####",
"####  ..XXXXXXXXXXXXXXXX..  ####",
"######    ..XXXXXXXX..    ######",
"######    ..XXXXXXXX..    ######",
"##########            ##########",
"##########            ##########"
};
