/* XPM */
static char *result[] = {
/* columns rows colors chars-per-pixel */
"32 32 8 1 ",
"  c #100B0F",
". c #31241C",
"X c #4F423A",
"o c #7C6F64",
"O c #961C1C",
"+ c #FF2A00",
"@ c #D38381",
"# c None",
/* pixels */
"################################",
"################################",
"############        ############",
"############        ############",
"##########  ++++OO  ############",
"##########  ++++OO  ############",
"########  OO++    ##############",
"########  OO++    ##############",
"######  XXooXXXX  ##############",
"######  XXooXXXX  ##############",
"####      oo    XX  ##        ##",
"####      oo    XX  ##        ##",
"####  XX++oooo++XX    XXoooooo  ",
"####  XX++oooo++XX    XXoooooo  ",
"##  @@@@@@XXoooooo  XXooooXXXX  ",
"##  @@@@@@XXoooooo  XXooooXXXX  ",
"####  ..XXooooooooXXoooooooo  ##",
"####  ..XXooooooooXXoooooooo  ##",
"##  XXXXooooooXXXXooooooXXooXX  ",
"##  XXXXooooooXXXXooooooXXooXX  ",
"  XXXXooooooooooXX  ooXX  ooXX  ",
"  XXXXooooooooooXX  ooXX  ooXX  ",
"  XXXXXXooXXooooooXX    XXoo  ##",
"  XXXXXXooXXooooooXX    XXoo  ##",
"  XXXXooXXooXXoooooooooooo..  ##",
"  XXXXooXXooXXoooooooooooo..  ##",
"##  ..XXoooooooooo    ooXX  ####",
"##  ..XXoooooooooo    ooXX  ####",
"####  ..XXooXXoo  @@@@  ..  ####",
"####  ..XXooXXoo  @@@@  ..  ####",
"######    ....XX  oo@@    ######",
"######    ....XX  oo@@    ######"
};
