/* XPM */
static char *result[] = {
/* columns rows colors chars-per-pixel */
"32 32 8 1 ",
"  c #100B0F",
". c #31241C",
"X c #4F423A",
"o c #7C6F64",
"O c #961C1C",
"+ c #FF2A00",
"@ c #D38381",
"# c None",
/* pixels */
"################################",
"################################",
"##############      ############",
"##############      ############",
"##############  OO++  ##########",
"##############  OO++  ##########",
"################  ++OO  ########",
"################  ++OO  ########",
"##############  XXooooXX  ######",
"##############  XXooooXX  ######",
"############  XXXXooooooXX  ####",
"############  XXXXooooooXX  ####",
"############  XXooooooooXX  @@##",
"############  XXooooooooXX  @@##",
"####    ####  XXoooooooooo  ####",
"####    ####  XXoooooooooo  ####",
"##  ooXX    ..XXooXXooooXX  ####",
"##  ooXX    ..XXooXXooooXX  ####",
"##  XXooooXXXXooXXoooo  ooXX  ##",
"##  XXooooXXXXooXXoooo  ooXX  ##",
"##  XXooooooooooooXX  oooooo  ##",
"##  XXooooooooooooXX  oooooo  ##",
"##  XXXXooooooooXX  ooooXX    ##",
"##  XXXXooooooooXX  ooooXX    ##",
"##  ..XXXXXXXXXXXXXXXX    ..  ##",
"##  ..XXXXXXXXXXXXXXXX    ..  ##",
"####  ..XXXXXXXXXXXXXXXX..  ####",
"####  ..XXXXXXXXXXXXXXXX..  ####",
"######    ....XXXXXX..    ######",
"######    ....XXXXXX..    ######",
"##########      oo@@@@  ########",
"##########      oo@@@@  ########"
};
