/* XPM */
static char *result[] = {
/* columns rows colors chars-per-pixel */
"32 32 8 1 ",
"  c #100B0F",
". c #31241C",
"X c #4F423A",
"o c #7C6F64",
"O c #961C1C",
"+ c #FF2A00",
"@ c #D38381",
"# c None",
/* pixels */
"################################",
"################################",
"################        ########",
"################        ########",
"################  OO++++  ######",
"################  OO++++  ######",
"##################    ++OO  ####",
"##################    ++OO  ####",
"################  XXooooooXX  ##",
"################  XXooooooXX  ##",
"##    ##########  oo    ooXX  ##",
"##    ##########  oo    ooXX  ##",
"  ooXX    ######  oooo++XX@@@@  ",
"  ooXX    ######  oooo++XX@@@@  ",
"  XXooooXX      XXoooooooo..  ##",
"  XXooooXX      XXoooooooo..  ##",
"  ..ooooooooXXXXoooooooooooo  ##",
"  ..ooooooooXXXXoooooooooooo  ##",
"##  ..XXooooooXXooooooooooooXX  ",
"##  ..XXooooooXXooooooooooooXX  ",
"  XXooXX    XXooooXXoooooooooo  ",
"  XXooXX    XXooooXXoooooooooo  ",
"  ..XXoo  oooooooo..ooXXooXXoo  ",
"  ..XXoo  oooooooo..ooXXooXXoo  ",
"##  XXXX..        XXXXooXXooXX  ",
"##  XXXX..        XXXXooXXooXX  ",
"####      ....XXXXXXXXXXXX..  ##",
"####      ....XXXXXXXXXXXX..  ##",
"######  @@@@  ..XXXXXX..    ####",
"######  @@@@  ..XXXXXX..    ####",
"########  oo@@        oo@@  ####",
"########  oo@@        oo@@  ####"
};
