/* XPM */
static char *c495fc1949ab40bbb070bcb1b9ecc959[] = {
/* columns rows colors chars-per-pixel */
"32 32 4 1 ",
"  c #1B4934",
". c #297938",
"X c #1E6144",
"o c #528E31",
/* pixels */
"  XXXX  XXXXXX..XX..XXooXXXXXXXX",
"  XXXX  XXXXXX..XX..XXooXXXXXXXX",
"XXXXooXX  XXXXXXXXXXooXXXXooXXoo",
"XXXXooXX  XXXXXXXXXXooXXXXooXXoo",
"XXooXXooXXXXooXXXX  ..XX  XX..XX",
"XXooXXooXXXXooXXXX  ..XX  XX..XX",
"XXXXXX..XX..XXXX    XXXXXX  XXXX",
"XXXXXX..XX..XXXX    XXXXXX  XXXX",
"XXXX  ..  ..XXXXXXXXXXXXXX  XXoo",
"XXXX  ..  ..XXXXXXXXXXXXXX  XXoo",
"  XX  XX  XXXXXX......XXXXXXooXX",
"  XX  XX  XXXXXX......XXXXXXooXX",
"..XXXXXXXXXXXX..XXXXXX..XXXX..XX",
"..XXXXXXXXXXXX..XXXXXX..XXXX..XX",
"..  XXooXX  XX..XX..XX..XX  ..XX",
"..  XXooXX  XX..XX..XX..XX  ..XX",
"XXXXXXXXooXXXX..XXXX..XXXX  XXXX",
"XXXXXXXXooXXXX..XXXX..XXXX  XXXX",
"XXooXXXX..XXXXXX..XXXXXXooooXX..",
"XXooXXXX..XXXXXX..XXXXXXooooXX..",
"XXXX..  ..XXooXXXX..XXoo..XX  XX",
"XXXX..  ..XXooXXXX..XXoo..XX  XX",
"XX  ..  XXXXXX..XX..  ..XXXXXXoo",
"XX  ..  XXXXXX..XX..  ..XXXXXXoo",
"..  XXXXXXXX  XXXX..  XXXXXXoo..",
"..  XXXXXXXX  XXXX..  XXXXXXoo..",
"XX..XXXXooXXooXX  ..XXXXXX  ..XX",
"XX..XXXXooXXooXX  ..XXXXXX  ..XX",
"XX..XXXXXXooXXXXXXXXXXoooo  XXXX",
"XX..XXXXXXooXXXXXXXXXXoooo  XXXX",
"XXXXXXXX  ..XXXX    ....XXXXXXXX",
"XXXXXXXX  ..XXXX    ....XXXXXXXX"
};
