/* XPM */
static char *result[] = {
/* columns rows colors chars-per-pixel */
"32 32 4 1 ",
"  c #1B4934",
". c #297938",
"X c #1E6144",
"o c #528E31",
/* pixels */
"  XXXX  XXXXXX..XX..XXooXXXXXXXX",
"  XXXX  XXXXXX..XX..XXooXXXXXXXX",
"XXXXooXX  XXXXXXXXXXooXXXXooXXoo",
"XXXXooXX  XXXXXXXXXXooXXXXooXXoo",
"XXooXXooXXXXooXXXX  ..XX  XX..XX",
"XXooXXooXXXXooXXXX  ..XX  XX..XX",
"XXXXXX..XX..XXXX    XXXXXX  XXXX",
"XXXXXX..XX..XXXX    XXXXXX  XXXX",
"XXXX  ..  ..XXXXXXXXXXoooo  XXXX",
"XXXX  ..  ..XXXXXXXXXXoooo  XXXX",
"  XX  XX  XXooooXXXXooooXXXXXX..",
"  XX  XX  XXooooXXXXooooXXXXXX..",
"..XXXXXXXX..XX..ooXXooooXX  XXXX",
"..XXXXXXXX..XX..ooXXooooXX  XXXX",
"..  XXooXXXXXX....XX....XX  XX  ",
"..  XXooXXXXXX....XX....XX  XX  ",
"XXXXXXXXooXXXXXX..  ..XXXXXXXXXX",
"XXXXXXXXooXXXXXX..  ..XXXXXXXXXX",
"XXooXXXXooXX..XXXX  XXXXooooXX..",
"XXooXXXXooXX..XXXX  XXXXooooXX..",
"XXXX..XXooXXooXXXX..XXoo..XX  XX",
"XXXX..XXooXXooXXXX..XXoo..XX  XX",
"XX  ..  ..XXXX..XX..  ..XXXXXXoo",
"XX  ..  ..XXXX..XX..  ..XXXXXXoo",
"..  XX  ..XX  XX  XX  XXXXXXoo..",
"..  XX  ..XX  XX  XX  XXXXXXoo..",
"XX..XXXXooXXooXXXXXXXXXXXX  ..XX",
"XX..XXXXooXXooXXXXXXXXXXXX  ..XX",
"XX..XXXXXXooXXXXXXXXXXoooo  XXXX",
"XX..XXXXXXooXXXXXXXXXXoooo  XXXX",
"XXXXXXXX  ..XXXX    ....XXXXXXXX",
"XXXXXXXX  ..XXXX    ....XXXXXXXX"
};
