/* XPM */
static char *result[] = {
/* columns rows colors chars-per-pixel */
"32 32 4 1 ",
"  c #1B4934",
". c #297938",
"X c #1E6144",
"o c #528E31",
/* pixels */
"XXXXooooXX  XXXXXXXX....XX  XXXX",
"XXXXooooXX  XXXXXXXX....XX  XXXX",
"XXooXXXXooXXXXooXX  ..XX  XX  XX",
"XXooXXXXooXXXXooXX  ..XX  XX  XX",
"XX....XXooXXooXXXXXXXXXXXX  XXXX",
"XX....XXooXXooXXXXXXXXXXXX  XXXX",
"XXXXXXXX..XXooXXXXooXX..XXXXXX..",
"XXXXXXXX..XXooXXXXooXX..XXXXXX..",
"..XX  ....  ..XXXXXXooXXXXXXXXXX",
"..XX  ....  ..XXXXXXooXXXXXXXXXX",
"..XX  XXXXXXXXXXXX  ..XXXXooXXXX",
"..XX  XXXXXXXXXXXX  ..XXXXooXXXX",
"..XXXXooooXXXXXXoo  XXXXooXXXX  ",
"..XXXXooooXXXXXXoo  XXXXooXXXX  ",
"XXXXXX..XXooXXooXXXXooXX..XX..  ",
"XXXXXX..XXooXXooXXXXooXX..XX..  ",
"XXXXXXXXXXooXX..XXooXX  ..    XX",
"XXXXXXXXXXooXX..XXooXX  ..    XX",
"XXooXXXX  ..  ..  ..XX  XXXXXXXX",
"XXooXXXX  ..  ..  ..XX  XXXXXXXX",
"XXXXoo    ..  XX  XXXXXXXXXXXX..",
"XXXXoo    ..  XX  XXXXXXXXXXXX..",
"XX  ..    XXXX..XXXXooXXooXX..oo",
"XX  ..    XXXX..XXXXooXXooXX..oo",
"XX  XXXXXXXX..XX..XXXXooXXXX..oo",
"XX  XXXXXXXX..XX..XXXXooXXXX..oo",
"ooXXXXooXX  XX..XXXX  ..XX  ....",
"ooXXXXooXX  XX..XXXX  ..XX  ....",
"XXooXXXXooXXXXXXXX    XXXX  ....",
"XXooXXXXooXXXXXXXX    XXXX  ....",
"  ..XX  ..XX..XXXX  XXXXXX  XXXX",
"  ..XX  ..XX..XXXX  XXXXXX  XXXX"
};
