/* XPM */
static char *result[] = {
/* columns rows colors chars-per-pixel */
"32 32 4 1 ",
"  c #1B4934",
". c #297938",
"X c #1E6144",
"o c #528E31",
/* pixels */
"XXooooXXXX  XXXXXXXX....XX  XXXX",
"XXooooXXXX  XXXXXXXX....XX  XXXX",
"ooXXoo..XXXXXXooXX  ..XX  XX  XX",
"ooXXoo..XXXXXXooXX  ..XX  XX  XX",
"XXXX....XXXXooXXXXXXXXXXXX  XXXX",
"XXXX....XXXXooXXXXXXXXXXXX  XXXX",
"XX  ....XXXXooXXXXooXX..XXXXXX..",
"XX  ....XXXXooXXXXooXX..XXXXXX..",
"..  XXXXXX  ..XXXXXXooXXXXXXXXXX",
"..  XXXXXX  ..XXXXXXooXXXXXXXXXX",
"..XXXX....XXXXXXoo  ..XXXX..XXXX",
"..XXXX....XXXXXXoo  ..XXXX..XXXX",
"..XX..oooo..XXooXX  XXXX..XXXX  ",
"..XX..oooo..XXooXX  XXXX..XXXX  ",
"XXXXooXXoo..XXooXXXXooXX..XX..  ",
"XXXXooXXoo..XXooXXXXooXX..XX..  ",
"XXXXXXXXoo..XX..XXooXX  ..    XX",
"XXXXXXXXoo..XX..XXooXX  ..    XX",
"XXooXXXX....  ..  ..XX  XXXXXXXX",
"XXooXXXX....  ..  ..XX  XXXXXXXX",
"XXXXoo  ..XX  XX  XXXXooooXXXX..",
"XXXXoo  ..XX  XX  XXXXooooXXXX..",
"XX  ..  XXXXooooXXXXooooXXXX..oo",
"XX  ..  XXXXooooXXXXooooXXXX..oo",
"XX  XXXXXX..XX..ooXXooooXXXX..oo",
"XX  XXXXXX..XX..ooXXooooXXXX..oo",
"ooXXXXooXXXXXX....XX....XX  ....",
"ooXXXXooXXXXXX....XX....XX  ....",
"XXooXXXXooXXXXXX..  ..XXXX  ....",
"XXooXXXXooXXXXXX..  ..XXXX  ....",
"  ..XX  ..XX..XXXX  XXXXXX  XXXX",
"  ..XX  ..XX..XXXX  XXXXXX  XXXX"
};
