/* XPM */
static char *result[] = {
/* columns rows colors chars-per-pixel */
"130 32 14 1 ",
"  c #6B2100",
". c #5B2B2A",
"X c #853605",
"o c #B14E05",
"O c #DC7B05",
"+ c #FA9305",
"@ c #F7BA00",
"# c #D5864F",
"$ c #E7A160",
"% c #F2BF72",
"& c #FFD284",
"* c #FFFE80",
"= c #FFECAD",
"- c None",
/* pixels */
"----------------------..OO..--------------------------------------------------------------------------..OO..----------------------",
"----------------------..OO..--------------------------------------------------------------------------..OO..----------------------",
"----------..XXXXXXXXXX..oo..XXXXXXXXXXXXXXXXXXXXXXXXXXXXXXXXXXXXXXXXXXXXXXXXXXXXXXXXXXXXXXXXXXXXXXXXXX..oo..XXXXXXXXXX..----------",
"----------..XXXXXXXXXX..oo..XXXXXXXXXXXXXXXXXXXXXXXXXXXXXXXXXXXXXXXXXXXXXXXXXXXXXXXXXXXXXXXXXXXXXXXXXX..oo..XXXXXXXXXX..----------",
"------....ooOOOO++++OOXXXXXXOO++++++++++++++++++++++++++++++++++++++++++++++++++++++++++++++++++++++OOXXXXXXOO++++++++oo....------",
"------....ooOOOO++++OOXXXXXXOO++++++++++++++++++++++++++++++++++++++++++++++++++++++++++++++++++++++OOXXXXXXOO++++++++oo....------",
"----..ooOOOOOO++OOooooooooooooooooooooooooooooooooooooooooooooooooooooooooooooooooooooooooooooooooooooooooooooooooooOO++OOoo..----",
"----..ooOOOOOO++OOooooooooooooooooooooooooooooooooooooooooooooooooooooooooooooooooooooooooooooooooooooooooooooooooooOO++OOoo..----",
"--..OOOOOOOOOO++oo############oo##########oo##########oo##########oo##########oo##########oo##########oo############oo++OOOOoo..--",
"--..OOOOOOOOOO++oo############oo##########oo##########oo##########oo##########oo##########oo##########oo############oo++OOOOoo..--",
"..ooOO++****++++oo##&&======&&##&&======&&##&&======&&##&&======&&##&&======&&##&&======&&##&&======&&##&&======&&##ooOOOO++OOXX..",
"..ooOO++****++++oo##&&======&&##&&======&&##&&======&&##&&======&&##&&======&&##&&======&&##&&======&&##&&======&&##ooOOOO++OOXX..",
"..ooOO@@    @@++oo##==&&&&&&==$$==&&&&&&==$$==&&&&&&==$$==&&&&&&==$$==&&&&&&==$$==&&&&&&==$$==&&&&&&==$$==&&&&&&==##oo++oo@@OOoo..",
"..ooOO@@    @@++oo##==&&&&&&==$$==&&&&&&==$$==&&&&&&==$$==&&&&&&==$$==&&&&&&==$$==&&&&&&==$$==&&&&&&==$$==&&&&&&==##oo++oo@@OOoo..",
"..ooOO  oooo  ++oo##&&&&&&&&&&$$&&&&&&&&&&$$&&&&&&&&&&$$&&&&&&&&&&$$&&&&&&&&&&$$&&&&&&&&&&$$&&&&&&&&&&$$&&&&&&&&&&##ooOOoo**OOoo..",
"..ooOO  oooo  ++oo##&&&&&&&&&&$$&&&&&&&&&&$$&&&&&&&&&&$$&&&&&&&&&&$$&&&&&&&&&&$$&&&&&&&&&&$$&&&&&&&&&&$$&&&&&&&&&&##ooOOoo**OOoo..",
"..ooOO  OOoo  ++oo##&&&&&&&&&&$$&&&&&&&&&&$$&&&&&&&&&&$$&&&&&&&&&&$$&&&&&&&&&&$$&&&&&&&&&&$$&&&&&&&&&&$$&&&&&&&&&&##ooOOoo**OOoo..",
"..ooOO  OOoo  ++oo##&&&&&&&&&&$$&&&&&&&&&&$$&&&&&&&&&&$$&&&&&&&&&&$$&&&&&&&&&&$$&&&&&&&&&&$$&&&&&&&&&&$$&&&&&&&&&&##ooOOoo**OOoo..",
"..oooo  OOoo  ++oo##&&&&&&&&&&$$&&&&&&&&&&$$&&&&&&&&&&$$&&&&&&&&&&$$&&&&&&&&&&$$&&&&&&&&&&$$&&&&&&&&&&$$&&&&&&&&&&##ooOOoo**OOoo..",
"..oooo  OOoo  ++oo##&&&&&&&&&&$$&&&&&&&&&&$$&&&&&&&&&&$$&&&&&&&&&&$$&&&&&&&&&&$$&&&&&&&&&&$$&&&&&&&&&&$$&&&&&&&&&&##ooOOoo**OOoo..",
"..oooo  OOoo  ++oo##&&&&&&&&&&$$&&&&&&&&&&$$&&&&&&&&&&$$&&&&&&&&&&$$&&&&&&&&&&$$&&&&&&&&&&$$&&&&&&&&&&$$&&&&&&&&&&##oo++oo@@OOoo..",
"..oooo  OOoo  ++oo##&&&&&&&&&&$$&&&&&&&&&&$$&&&&&&&&&&$$&&&&&&&&&&$$&&&&&&&&&&$$&&&&&&&&&&$$&&&&&&&&&&$$&&&&&&&&&&##oo++oo@@OOoo..",
"..XXoooo    oo++oo##&&&&&&&&&&$$&&&&&&&&&&$$&&&&&&&&&&$$&&&&&&&&&&$$&&&&&&&&&&$$&&&&&&&&&&$$&&&&&&&&&&$$&&&&&&&&&&##ooOOOO++OOXX..",
"..XXoooo    oo++oo##&&&&&&&&&&$$&&&&&&&&&&$$&&&&&&&&&&$$&&&&&&&&&&$$&&&&&&&&&&$$&&&&&&&&&&$$&&&&&&&&&&$$&&&&&&&&&&##ooOOOO++OOXX..",
"--..ooooooooOO++oo##%%&&&&&&%%##%%&&&&&&%%##%%&&&&&&%%##%%&&&&&&%%##%%&&&&&&%%##%%&&&&&&%%##%%&&&&&&%%##%%&&&&&&%%##oo++OOOOoo..--",
"--..ooooooooOO++oo##%%&&&&&&%%##%%&&&&&&%%##%%&&&&&&%%##%%&&&&&&%%##%%&&&&&&%%##%%&&&&&&%%##%%&&&&&&%%##%%&&&&&&%%##oo++OOOOoo..--",
"----..XXooOOOO++OOooXXXXXXXXXXooXXXXXXXXXXooXXXXXXXXXXooXXXXXXXXXXooXXXXXXXXXXooXXXXXXXXXXooXXXXXXXXXXooXXXXXXXXXXooOO++OOoo..----",
"----..XXooOOOO++OOooXXXXXXXXXXooXXXXXXXXXXooXXXXXXXXXXooXXXXXXXXXXooXXXXXXXXXXooXXXXXXXXXXooXXXXXXXXXXooXXXXXXXXXXooOO++OOoo..----",
"------....ooOOOO++++++++++++++++++++++++++++++++++++++++++++++++++++++++++++++++++++++++++++++++++++++++++++++++++++++oo....------",
"------....ooOOOO++++++++++++++++++++++++++++++++++++++++++++++++++++++++++++++++++++++++++++++++++++++++++++++++++++++oo....------",
"----------....XXXXXXXXXXXXXXXXXXXXXXXXXXXXXXXXXXXXXXXXXXXXXXXXXXXXXXXXXXXXXXXXXXXXXXXXXXXXXXXXXXXXXXXXXXXXXXXXXXXXXXXX..----------",
"----------....XXXXXXXXXXXXXXXXXXXXXXXXXXXXXXXXXXXXXXXXXXXXXXXXXXXXXXXXXXXXXXXXXXXXXXXXXXXXXXXXXXXXXXXXXXXXXXXXXXXXXXXX..----------"
};
