/* XPM */
static char *result[] = {
/* columns rows colors chars-per-pixel */
"10 15 4 1 ",
"  c #1F1F33",
". c #B7B7B7",
"X c #E0E0BE",
"o c None",
/* pixels */
"ooo     oo",
"ooo     oo",
"oo ..XXX  ",
"oo ..XXX  ",
"  .....X  ",
"  .....X  ",
"oo ....X  ",
"oo ....X  ",
"oo ....X  ",
"oo ....X  ",
"oo ....X  ",
"oo .....  ",
"oo .....  ",
"ooo     oo",
"ooo     oo"
};
