/* XPM */
static char *result[] = {
/* columns rows colors chars-per-pixel */
"10 15 4 1 ",
"  c #1F1F33",
". c #B7B7B7",
"X c #E0E0BE",
"o c None",
/* pixels */
"ooo    ooo",
"ooo    ooo",
"o  .XXX  o",
"o  .XXX  o",
" ...  X.. ",
" ...  X.. ",
" ..X  X.. ",
" ..X  ... ",
" ..X  ... ",
" ..X  ... ",
" ..X  ... ",
"o  .XX.  o",
"o  .XX.  o",
"ooo    ooo",
"ooo    ooo"
};
