/* XPM */
static char *result[] = {
/* columns rows colors chars-per-pixel */
"10 15 4 1 ",
"  c #1F1F33",
". c #B7B7B7",
"X c #E0E0BE",
"o c None",
/* pixels */
"oo     ooo",
"oo     ooo",
"o ....X  o",
"o ....X  o",
" ...  .XX ",
" ...  .XX ",
"o .....  o",
" ...  .XX ",
" ...  .XX ",
" ...  ... ",
" ...  ... ",
"o .....  o",
"o .....  o",
"oo     ooo",
"oo     ooo"
};
