/* XPM */
static char *result[] = {
/* columns rows colors chars-per-pixel */
"10 15 4 1 ",
"  c #1F1F33",
". c #B7B7B7",
"X c #E0E0BE",
"o c None",
/* pixels */
"o        o",
"o        o",
" ...XXXXX ",
" ...XXXXX ",
"      .XX ",
"      .XX ",
"ooo ...  o",
"ooo ...XX ",
"ooo ...XX ",
"o     ... ",
"o     ... ",
" ......  o",
" ......  o",
"o      ooo",
"o      ooo"
};
