/* XPM */
static char *result[] = {
/* columns rows colors chars-per-pixel */
"10 15 4 1 ",
"  c #1F1F33",
". c #B7B7B7",
"X c #E0E0BE",
"o c None",
/* pixels */
"oooo     o",
"oooo     o",
"ooo ...XX ",
"ooo ...XX ",
"o  .  .XX ",
"o  .  .XX ",
" ...  .XX ",
" ......XX ",
" ......XX ",
"o     .XX ",
"o     .XX ",
"oooo  ... ",
"oooo  ... ",
"oooooo   o",
"oooooo   o"
};
