/* XPM */
static char *result[] = {
/* columns rows colors chars-per-pixel */
"10 15 4 1 ",
"  c #1F1F33",
". c #B7B7B7",
"X c #E0E0BE",
"o c None",
/* pixels */
"o      ooo",
"o      ooo",
" ..XXXX  o",
" ..XXXX  o",
" ...  XXX ",
" ...  XXX ",
"o   ..... ",
" .....   o",
" .....   o",
" ...  .XX ",
" ...  .XX ",
"o  ...... ",
"o  ...... ",
"ooo       ",
"ooo       "
};
