/* XPM */
static char *result[] = {
/* columns rows colors chars-per-pixel */
"32 32 6 1 ",
"  c #603A3B",
". c #BCA697",
"X c #CCB5CD",
"o c #F9E9D4",
"O c white",
"+ c None",
/* pixels */
"++++++++++++++++++++++++++++++++",
"++++++++++++++++++++++++++++++++",
"++++++++++++++++++++++++++++++++",
"++++++++++++++++++++++++++++++++",
"++++++++++++++++++++++++++++++++",
"++++++++++++++++++++++++++++++++",
"++++++++++++++++++++++++++++++++",
"++++++++++++++++++++++++++++++++",
"++++++++++++++++++++++++++++++++",
"++++++++++++++++++++++++++++++++",
"++++++++++++++    ++++++++++++++",
"++++++++++++++    ++++++++++++++",
"++++++++++++  XXoo  ++++++++++++",
"++++++++++++  XXoo  ++++++++++++",
"++++++++++  ..ooOOoo  ++++++++++",
"++++++++++  ..ooOOoo  ++++++++++",
"++++++++++  ..ooOOOO  ++++++++++",
"++++++++++  ..ooOOOO  ++++++++++",
"++++++++  ....ooOOOOXX  ++++++++",
"++++++++  ....ooOOOOXX  ++++++++",
"++++++++  XX..XXooOOoo  ++++++++",
"++++++++  XX..XXooOOoo  ++++++++",
"++++++++  XX....XXoooo  ++++++++",
"++++++++  XX....XXoooo  ++++++++",
"++++++++  XX..........  ++++++++",
"++++++++  XX..........  ++++++++",
"++++++++++  XX......  ++++++++++",
"++++++++++  XX......  ++++++++++",
"++++++++++++        ++++++++++++",
"++++++++++++        ++++++++++++",
"++++++++++++++++++++++++++++++++",
"++++++++++++++++++++++++++++++++"
};
