/* XPM */
static char *result[] = {
/* columns rows colors chars-per-pixel */
"32 32 9 1 ",
"  c #77370B",
". c #C22323",
"X c #FF5900",
"o c #E07400",
"O c orange",
"+ c #FFB308",
"@ c #FFD921",
"# c #FFEE78",
"$ c None",
/* pixels */
"$$$$$$$$$$$$        $$$$$$$$$$$$",
"$$$$$$$$$$$$        $$$$$$$$$$$$",
"$$$$$$$$$$  XXXXXX..  $$$$$$$$$$",
"$$$$$$$$$$  XXXXXX..  $$$$$$$$$$",
"$$$$$$$$  ..XX    XX  $$$$$$$$$$",
"$$$$$$$$  ..XX    XX  $$$$$$$$$$",
"$$$$$$  ++######++  $$$$    $$$$",
"$$$$$$  ++######++  $$$$    $$$$",
"$$$$  ##  ####  ##++  $$  ##    ",
"$$$$  ##  ####  ##++  $$  ##    ",
"$$$$  ++  ####  ##++    ++##++  ",
"$$$$  ++  ####  ##++    ++##++  ",
"$$$$oo@@++oo##  ####  oo++####  ",
"$$$$oo@@++oo##  ####  oo++####  ",
"$$oo@@@@@@oo######++oo  oooo  $$",
"$$oo@@@@@@oo######++oo  oooo  $$",
"$$  ooXXXX++####++oo++++####++  ",
"$$  ooXXXX++####++oo++++####++  ",
"  oo++ooXX################++oo  ",
"  oo++ooXX################++oo  ",
"  ++##++##++####++  ####++    $$",
"  ++##++##++####++  ####++    $$",
"  ++++##++##++####++      oo  $$",
"  ++++##++##++####++      oo  $$",
"$$  oo++############++oooo  $$$$",
"$$  oo++############++oooo  $$$$",
"$$$$  oo++##++##++####++  $$$$$$",
"$$$$  oo++##++##++####++  $$$$$$",
"$$$$$$    oooooo    oo  $$$$$$$$",
"$$$$$$    oooooo    oo  $$$$$$$$",
"$$$$  @@@@OO  OO@@@@  $$$$$$$$$$",
"$$$$  @@@@OO  OO@@@@  $$$$$$$$$$"
};
