/* XPM */
static char *result[] = {
/* columns rows colors chars-per-pixel */
"32 32 8 1 ",
"  c #77370B",
". c #C22323",
"X c #FF5900",
"o c #E07400",
"O c #FFB308",
"+ c #FFD921",
"@ c #FFEE78",
"# c None",
/* pixels */
"################################",
"################################",
"################################",
"################################",
"############        ############",
"############        ############",
"##########  XXXXXX..  ##########",
"##########  XXXXXX..  ##########",
"########  ..XX    XX  ##########",
"########  ..XX    XX  ##########",
"######  OO@@@@@@OO  ####    ####",
"######  OO@@@@@@OO  ####    ####",
"####  @@@@@@@@@@@@OO  ##  @@    ",
"####  @@@@@@@@@@@@OO  ##  @@    ",
"          @@      OO    OO@@OO  ",
"          @@      OO    OO@@OO  ",
"  ++++OOOOoo@@@@@@@@  ooOO@@@@  ",
"  ++++OOOOoo@@@@@@@@  ooOO@@@@  ",
"##  oo++++oo@@@@@@OOoo  oooo  ##",
"##  oo++++oo@@@@@@OOoo  oooo  ##",
"##  ooXXXXOO@@@@OOooOOOO@@@@OO  ",
"##  ooXXXXOO@@@@OOooOOOO@@@@OO  ",
"  ooOOooXX@@@@@@@@@@@@@@@@OOoo  ",
"  ooOOooXX@@@@@@@@@@@@@@@@OOoo  ",
"  OO@@OO@@OO@@@@OO  @@@@OO    ##",
"  OO@@OO@@OO@@@@OO  @@@@OO    ##",
"  OOOO@@OO@@OO@@@@OO      oo  ##",
"  OOOO@@OO@@OO@@@@OO      oo  ##",
"  ooOOOO@@@@@@@@@@@@OOoooooo  ##",
"  ooOOOO@@@@@@@@@@@@OOoooooo  ##",
"##  ooooooOOOOOOOOOOoooo    ####",
"##  ooooooOOOOOOOOOOoooo    ####"
};
