/* XPM */
static char *result[] = {
/* columns rows colors chars-per-pixel */
"32 32 6 1 ",
"  c #5C2800",
". c #A75900",
"X c #D58E18",
"o c #EAC782",
"O c #F4F4F4",
"+ c None",
/* pixels */
"++++++++++++++++++++++++++++++++",
"++++++++++++++++++++++++++++++++",
"++++++++++++++++++++++++++++++++",
"++++++++++++++++++++++++++++++++",
"          ++++++++++          ++",
"          ++++++++++          ++",
"  ooooooXX  ++++++  XXoooooo  ++",
"  ooooooXX  ++++++  XXoooooo  ++",
"  XXoooooooo  ++  ooooooooXX  ++",
"  XXoooooooo  ++  ooooooooXX  ++",
"++  ooooooooXX  XXoooooooo  ++++",
"++  ooooooooXX  XXoooooooo  ++++",
"++++  ooooooooXXoooooooo  ++++++",
"++++  ooooooooXXoooooooo  ++++++",
"++++++  XXooooooooooXX  ++++++++",
"++++++  XXooooooooooXX  ++++++++",
"++++++++  oooooooooo  ++++++++++",
"++++++++  oooooooooo  ++++++++++",
"++++++    XXXXooXXXX  ++++++++++",
"++++++    XXXXooXXXX  ++++++++++",
"++++++  XXooooooooooXX    ++++++",
"++++++  XXooooooooooXX    ++++++",
"++++++  XXoooo......oooo  ++++++",
"++++++  XXoooo......oooo  ++++++",
"++++  ooXXoo..OOOOOO..XX  ++++++",
"++++  ooXXoo..OOOOOO..XX  ++++++",
"++++  XXoooo..ooOOoo..  ++++++++",
"++++  XXoooo..ooOOoo..  ++++++++",
"++++      XXXX......XX  ++++++++",
"++++      XXXX......XX  ++++++++",
"++++++++++            ++++++++++",
"++++++++++            ++++++++++"
};
