/* XPM */
static char *result[] = {
/* columns rows colors chars-per-pixel */
"32 32 7 1 ",
"  c #5C2800",
". c #A75900",
"X c #D58E18",
"o c #C75E8C",
"O c #EAC782",
"+ c #F4F4F4",
"@ c None",
/* pixels */
"@@@@@@@@@@@@@@@@@@@@@@@@@@@@@@@@",
"@@@@@@@@@@@@@@@@@@@@@@@@@@@@@@@@",
"@@@@@@@@@@@@@@      @@@@@@@@@@@@",
"@@@@@@@@@@@@@@      @@@@@@@@@@@@",
"@@@@@@@@@@    OO++++  @@@@@@@@@@",
"@@@@@@@@@@    OO++++  @@@@@@@@@@",
"@@@@@@@@  ..XXXXXXXX  @@@@@@@@@@",
"@@@@@@@@  ..XXXXXXXX  @@@@@@@@@@",
"        ..XXOOOOOOOO..        @@",
"        ..XXOOOOOOOO..        @@",
"  OOOOOOOO  XXOOOO  OOOOOOOO  @@",
"  OOOOOOOO  XXOOOO  OOOOOOOO  @@",
"  OOXXXXXXOO  XX  OOXXXXXXOO  @@",
"  OOXXXXXXOO  XX  OOXXXXXXOO  @@",
"@@  XXooooXXOO  OOXXooooXX  @@@@",
"@@  XXooooXXOO  OOXXooooXX  @@@@",
"@@@@  ..ooooXX..XXoooo..  @@@@@@",
"@@@@  ..ooooXX..XXoooo..  @@@@@@",
"@@@@@@  ..ooOOXXOOoo..    @@@@@@",
"@@@@@@  ..ooOOXXOOoo..    @@@@@@",
"@@@@@@@@  XXOOOOOOXX  ..  @@@@@@",
"@@@@@@@@  XXOOOOOOXX  ..  @@@@@@",
"@@@@@@  XXOOOOOOOOOOXX..  @@@@@@",
"@@@@@@  XXOOOOOOOOOOXX..  @@@@@@",
"@@@@    OO  OOOOOO  OO  @@@@@@@@",
"@@@@    OO  OOOOOO  OO  @@@@@@@@",
"@@@@    OO  OOOOOO        @@@@@@",
"@@@@    OO  OOOOOO        @@@@@@",
"@@@@@@  ..XXOOooOO..XXOOXX  @@@@",
"@@@@@@  ..XXOOooOO..XXOOXX  @@@@",
"@@@@@@@@                    @@@@",
"@@@@@@@@                    @@@@"
};
