/* XPM */
static char *result[] = {
/* columns rows colors chars-per-pixel */
"32 32 7 1 ",
"  c #5C2800",
". c #A75900",
"X c #D58E18",
"o c #C75E8C",
"O c #EAC782",
"+ c #F4F4F4",
"@ c None",
/* pixels */
"@@@@@@@@@@@@@@@@@@@@@@@@@@@@@@@@",
"@@@@@@@@@@@@@@@@@@@@@@@@@@@@@@@@",
"      @@@@@@        @@@@@@@@@@@@",
"      @@@@@@        @@@@@@@@@@@@",
"  OOOO  @@  XXOOOO  @@@@@@@@@@@@",
"  OOOO  @@  XXOOOO  @@@@@@@@@@@@",
"  OOOOXX  OOoooo  @@@@@@@@@@@@@@",
"  OOOOXX  OOoooo  @@@@@@@@@@@@@@",
"@@  OO  XXoooo  @@@@@@@@@@@@@@@@",
"@@  OO  XXoooo  @@@@@@@@@@@@@@@@",
"@@  XX..OOoo  @@@@@@@@@@@@@@@@@@",
"@@  XX..OOoo  @@@@@@@@@@@@@@@@@@",
"@@@@  XXOO  @@@@@@@@@@@@@@@@@@@@",
"@@@@  XXOO  @@@@@@@@@@@@@@@@@@@@",
"@@  OOOOOOOO  @@@@@@@@@@@@@@@@@@",
"@@  OOOOOOOO  @@@@@@@@@@@@@@@@@@",
"  OOOOOOOOOOXX  @@@@@@@@@@@@@@@@",
"  OOOOOOOOOOXX  @@@@@@@@@@@@@@@@",
"  OOOO  OOOOOO..    @@@@@@    @@",
"  OOOO  OOOOOO..    @@@@@@    @@",
"  OOOO  OOOOOOOOXX..      ++++  ",
"  OOOO  OOOOOOOOXX..      ++++  ",
"  ooOOXXOOOOOOOOOOOOXXXX..++++  ",
"  ooOOXXOOOOOOOOOOOOXXXX..++++  ",
"@@      XXOOOOXXOOXX..XXXX..OO  ",
"@@      XXOOOOXXOOXX..XXXX..OO  ",
"@@@@  ..  OOOOXXXX..OOOOXXXX  @@",
"@@@@  ..  OOOOXXXX..OOOOXXXX  @@",
"@@  OOXX  OOXX    XXOOOOOOXX  @@",
"@@  OOXX  OOXX    XXOOOOOOXX  @@",
"@@            @@@@  ....    @@@@",
"@@            @@@@  ....    @@@@"
};
