/* XPM */
static char *result[] = {
/* columns rows colors chars-per-pixel */
"32 32 6 1 ",
"  c #5C2800",
". c #A75900",
"X c #D58E18",
"o c #EAC782",
"O c #F4F4F4",
"+ c None",
/* pixels */
"++++++++++++++++++++++++++++++++",
"++++++++++++++++++++++++++++++++",
"          ++++++++++          ++",
"          ++++++++++          ++",
"  ooooooXX  ++++++  XXoooooo  ++",
"  ooooooXX  ++++++  XXoooooo  ++",
"  XXoooooooo  ++  ooooooooXX  ++",
"  XXoooooooo  ++  ooooooooXX  ++",
"++  ooooooooXX  XXoooooooo  ++++",
"++  ooooooooXX  XXoooooooo  ++++",
"++++  ooooooooXXoooooooo  ++++++",
"++++  ooooooooXXoooooooo  ++++++",
"++++++  XXooooooooooXX  ++++++++",
"++++++  XXooooooooooXX  ++++++++",
"++++++++  oooooooooo  ++++++++++",
"++++++++  oooooooooo  ++++++++++",
"++++++++  XXXXooXXXX  ++++++++++",
"++++++++  XXXXooXXXX  ++++++++++",
"++++++  XXooooooooooXX  ++++++++",
"++++++  XXooooooooooXX  ++++++++",
"++++++  oooo......oooo  ++++++++",
"++++++  oooo......oooo  ++++++++",
"++++    oo..OOOOOO..oo    ++++++",
"++++    oo..OOOOOO..oo    ++++++",
"++++  XXoo..ooOOoo..ooXX  ++++++",
"++++  XXoo..ooOOoo..ooXX  ++++++",
"++++  XXooXX..XX..XXooXX  ++++++",
"++++  XXooXX..XX..XXooXX  ++++++",
"++++++  XXooXX  XXooXX  ++++++++",
"++++++  XXooXX  XXooXX  ++++++++",
"++++++++      ++      ++++++++++",
"++++++++      ++      ++++++++++"
};
