/* XPM */
static char *result[] = {
/* columns rows colors chars-per-pixel */
"32 32 7 1 ",
"  c #5C2800",
". c #A75900",
"X c #D58E18",
"o c #C75E8C",
"O c #EAC782",
"+ c #F4F4F4",
"@ c None",
/* pixels */
"@@@@@@@@@@@@@@@@@@@@@@@@@@@@@@@@",
"@@@@@@@@@@@@@@@@@@@@@@@@@@@@@@@@",
"@@@@@@@@@@@@        @@@@@@      ",
"@@@@@@@@@@@@        @@@@@@      ",
"@@@@@@@@@@@@  OOOOXX  @@  OOOO  ",
"@@@@@@@@@@@@  OOOOXX  @@  OOOO  ",
"@@@@@@@@@@@@@@  ooooOO  XXOOOO  ",
"@@@@@@@@@@@@@@  ooooOO  XXOOOO  ",
"@@@@@@@@@@@@@@@@  ooooXX  OO  @@",
"@@@@@@@@@@@@@@@@  ooooXX  OO  @@",
"@@@@@@@@@@@@@@@@@@  ooOO..XX  @@",
"@@@@@@@@@@@@@@@@@@  ooOO..XX  @@",
"@@@@@@@@@@@@@@@@@@@@  OOXX  @@@@",
"@@@@@@@@@@@@@@@@@@@@  OOXX  @@@@",
"@@@@@@@@@@@@@@@@@@  OOOOOOOO  @@",
"@@@@@@@@@@@@@@@@@@  OOOOOOOO  @@",
"@@@@@@@@@@@@@@@@  XXOOOOOOOOOO  ",
"@@@@@@@@@@@@@@@@  XXOOOOOOOOOO  ",
"@@    @@@@@@    ..OOOOOO  OOOO  ",
"@@    @@@@@@    ..OOOOOO  OOOO  ",
"  ++++      ..XXOOOOOOOO  OOOO  ",
"  ++++      ..XXOOOOOOOO  OOOO  ",
"  ++++..XXXXOOOOOOOOOOOOXXOOoo  ",
"  ++++..XXXXOOOOOOOOOOOOXXOOoo  ",
"  OO..XXXX..XXOOXXOOOOXX      @@",
"  OO..XXXX..XXOOXXOOOOXX      @@",
"@@  XXXXOOOO..XXXXOOOO  ..  @@@@",
"@@  XXXXOOOO..XXXXOOOO  ..  @@@@",
"@@  XXOOOOOOXX    XXOO  XXOO  @@",
"@@  XXOOOOOOXX    XXOO  XXOO  @@",
"@@@@    ....  @@@@            @@",
"@@@@    ....  @@@@            @@"
};
