/* XPM */
static char *result[] = {
/* columns rows colors chars-per-pixel */
"32 64 9 1 ",
"  c #08030B",
". c #431A00",
"X c #491814",
"o c #612824",
"O c #7F3620",
"+ c #9F5826",
"@ c #C67B2F",
"# c #FFAF46",
"$ c None",
/* pixels */
"$$$$$$$$$$$$$$$$$$$$$$$$$$$$$$$$",
"$$$$$$$$$$$$$$$$$$$$$$$$$$$$$$$$",
"$$$$$$$$$$$$$$XXXX$$$$$$$$$$$$$$",
"$$$$$$$$$$$$$$XXXX$$$$$$$$$$$$$$",
"$$$$$$$$$$$$XX++@@XX$$$$$$$$$$$$",
"$$$$$$$$$$$$XX++@@XX$$$$$$$$$$$$",
"$$$$$$$$$$$$XX++@@XX$$$$$$$$$$$$",
"$$$$$$$$$$$$XX++@@XX$$$$$$$$$$$$",
"$$$$$$$$$$$$oooooooo$$$$$$$$$$$$",
"$$$$$$$$$$$$oooooooo$$$$$$$$$$$$",
"$$$$$$$$$$oo++++@@@@oo$$$$$$$$$$",
"$$$$$$$$$$oo++++@@@@oo$$$$$$$$$$",
"$$$$$$$$oo++OO@@++OO@@oo$$$$$$$$",
"$$$$$$$$oo++OO@@++OO@@oo$$$$$$$$",
"$$$$$$$$oo++OO++@@++##oo$$$$$$$$",
"$$$$$$$$oo++OO++@@++##oo$$$$$$$$",
"$$$$$$$$XX@@++OOOO@@##oo$$$$$$$$",
"$$$$$$$$XX@@++OOOO@@##oo$$$$$$$$",
"$$$$$$$$XX++@@######@@XX$$$$$$$$",
"$$$$$$$$XX++@@######@@XX$$$$$$$$",
"$$$$$$$$XXOOOO++@@@@++XX$$$$$$$$",
"$$$$$$$$XXOOOO++@@@@++XX$$$$$$$$",
"XXXXXXXXXXooOOOO++++++XX$$$$$$$$",
"XXXXXXXXXXooOOOO++++++XX$$$$$$$$",
"++++++++ooooooOO++@@++XX$$$$$$$$",
"++++++++ooooooOO++@@++XX$$$$$$$$",
"@@@@@@++ooooOO++++++++XX$$$$$$$$",
"@@@@@@++ooooOO++++++++XX$$$$$$$$",
"OOOOooooXXooooOO++@@++XX$$$$$$$$",
"OOOOooooXXooooOO++@@++XX$$$$$$$$",
"ooooooooXXooOOOO++@@++XX$$$$$$$$",
"ooooooooXXooOOOO++@@++XX$$$$$$$$",
"XXXXXXXXXXooOO++++@@++XX$$$$$$$$",
"XXXXXXXXXXooOO++++@@++XX$$$$$$$$",
"$$$$$$$$XXooOOoo++++++XX$$$$$$$$",
"$$$$$$$$XXooOOoo++++++XX$$$$$$$$",
"$$$$$$$$XXooOOOO++@@++XX$$$$$$$$",
"$$$$$$$$XXooOOOO++@@++XX$$$$$$$$",
"XXXXXXXXXXooOO++++++++XX$$$$$$$$",
"XXXXXXXXXXooOO++++++++XX$$$$$$$$",
"++++++++XXoo++OO++@@++XX$$$$$$$$",
"++++++++XXoo++OO++@@++XX$$$$$$$$",
"@@@@@@++XXooOO++++@@++XX$$$$$$$$",
"@@@@@@++XXooOO++++@@++XX$$$$$$$$",
"OOOOooooXXooOO++++++++XX$$$$$$$$",
"OOOOooooXXooOO++++++++XX$$$$$$$$",
"ooooooooXXooOOOO++@@++XX$$$$$$$$",
"ooooooooXXooOOOO++@@++XX$$$$$$$$",
"XXXXXXXXXXooOO++++@@++XX$$$$$$$$",
"XXXXXXXXXXooOO++++@@++XX$$$$$$$$",
"$$$$$$$$XXooOOOO++++++XX$$$$$$$$",
"$$$$$$$$XXooOOOO++++++XX$$$$$$$$",
"$$$$$$$$XXooOOoo++OOOOXX$$$$$$$$",
"$$$$$$$$XXooOOoo++OOOOXX$$$$$$$$",
"$$$$$$$$XXooOOooOO++OOXX$$$$$$$$",
"$$$$$$$$XXooOOooOO++OOXX$$$$$$$$",
"$$$$$$$$  XXoooooooo..  $$$$$$$$",
"$$$$$$$$  XXoooooooo..  $$$$$$$$",
"$$$$$$$$$$  XXXXXXXX  $$$$$$$$$$",
"$$$$$$$$$$  XXXXXXXX  $$$$$$$$$$",
"$$$$$$$$$$$$$$$$$$$$$$$$$$$$$$$$",
"$$$$$$$$$$$$$$$$$$$$$$$$$$$$$$$$",
"$$$$$$$$$$$$$$$$$$$$$$$$$$$$$$$$",
"$$$$$$$$$$$$$$$$$$$$$$$$$$$$$$$$"
};
