/* XPM */
static char *result[] = {
/* columns rows colors chars-per-pixel */
"32 64 9 1 ",
"  c #08030B",
". c #431A00",
"X c #491814",
"o c #612824",
"O c #7F3620",
"+ c #9F5826",
"@ c #C67B2F",
"# c #FFAF46",
"$ c None",
/* pixels */
"$$$$$$$$$$$$$$$$$$$$$$$$$$$$$$$$",
"$$$$$$$$$$$$$$$$$$$$$$$$$$$$$$$$",
"$$$$$$$$$$$$$$$$$$$$$$$$$$$$$$$$",
"$$$$$$$$$$$$$$$$$$$$$$$$$$$$$$$$",
"$$$$$$$$$$$$$$$$$$$$$$$$$$$$$$$$",
"$$$$$$$$$$$$$$$$$$$$$$$$$$$$$$$$",
"$$$$$$$$$$$$$$$$$$$$$$$$$$$$$$$$",
"$$$$$$$$$$$$$$$$$$$$$$$$$$$$$$$$",
"$$$$$$$$$$$$oooooooo$$$$$$$$$$$$",
"$$$$$$$$$$$$oooooooo$$$$$$$$$$$$",
"$$$$$$$$$$oo++++@@@@oo$$$$$$$$$$",
"$$$$$$$$$$oo++++@@@@oo$$$$$$$$$$",
"$$$$$$$$oo++OO@@++OO@@oo$$$$$$$$",
"$$$$$$$$oo++OO@@++OO@@oo$$$$$$$$",
"$$$$$$$$oo++OO++@@++##oo$$$$$$$$",
"$$$$$$$$oo++OO++@@++##oo$$$$$$$$",
"$$$$$$$$XX@@++OOOO@@##oo$$$$$$$$",
"$$$$$$$$XX@@++OOOO@@##oo$$$$$$$$",
"$$$$$$$$XX++@@######@@XX$$$$$$$$",
"$$$$$$$$XX++@@######@@XX$$$$$$$$",
"$$$$$$$$XXOOOO++@@@@++XX$$$$$$$$",
"$$$$$$$$XXOOOO++@@@@++XX$$$$$$$$",
"$$$$$$$$XXooOOOO++++++XXXXXXXXXX",
"$$$$$$$$XXooOOOO++++++XXXXXXXXXX",
"$$$$$$$$XXooOO++++@@++OO++++++++",
"$$$$$$$$XXooOO++++@@++OO++++++++",
"$$$$$$$$XXooOO++@@##@@OO++@@@@@@",
"$$$$$$$$XXooOO++@@##@@OO++@@@@@@",
"$$$$$$$$XXooOO@@++@@@@OOoooooooo",
"$$$$$$$$XXooOO@@++@@@@OOoooooooo",
"$$$$$$$$XXooOO++@@@@++XXoooooooo",
"$$$$$$$$XXooOO++@@@@++XXoooooooo",
"$$$$$$$$XXooOO++++@@++XXXXXXXXXX",
"$$$$$$$$XXooOO++++@@++XXXXXXXXXX",
"$$$$$$$$XXooOOoo++++++XX$$$$$$$$",
"$$$$$$$$XXooOOoo++++++XX$$$$$$$$",
"$$$$$$$$XXooOOOO++@@++XX$$$$$$$$",
"$$$$$$$$XXooOOOO++@@++XX$$$$$$$$",
"$$$$$$$$XXooOO++++++++XXXXXXXXXX",
"$$$$$$$$XXooOO++++++++XXXXXXXXXX",
"$$$$$$$$XXoo++OO++@@++XX++++++++",
"$$$$$$$$XXoo++OO++@@++XX++++++++",
"$$$$$$$$XXooOO++++@@++XX++@@@@@@",
"$$$$$$$$XXooOO++++@@++XX++@@@@@@",
"$$$$$$$$XXooOO++++++++XXoooooooo",
"$$$$$$$$XXooOO++++++++XXoooooooo",
"$$$$$$$$XXooOOOO++@@++XXoooooooo",
"$$$$$$$$XXooOOOO++@@++XXoooooooo",
"$$$$$$$$XXooOO++++@@++XXXXXXXXXX",
"$$$$$$$$XXooOO++++@@++XXXXXXXXXX",
"$$$$$$$$XXooOOOO++++++XX$$$$$$$$",
"$$$$$$$$XXooOOOO++++++XX$$$$$$$$",
"$$$$$$$$XXooOOoo++OOOOXX$$$$$$$$",
"$$$$$$$$XXooOOoo++OOOOXX$$$$$$$$",
"$$$$$$$$XXooOOooOO++OOXX$$$$$$$$",
"$$$$$$$$XXooOOooOO++OOXX$$$$$$$$",
"$$$$$$$$  XXoooooooo..  $$$$$$$$",
"$$$$$$$$  XXoooooooo..  $$$$$$$$",
"$$$$$$$$$$  XXXXXXXX  $$$$$$$$$$",
"$$$$$$$$$$  XXXXXXXX  $$$$$$$$$$",
"$$$$$$$$$$$$$$$$$$$$$$$$$$$$$$$$",
"$$$$$$$$$$$$$$$$$$$$$$$$$$$$$$$$",
"$$$$$$$$$$$$$$$$$$$$$$$$$$$$$$$$",
"$$$$$$$$$$$$$$$$$$$$$$$$$$$$$$$$"
};
