/* XPM */
static char *result[] = {
/* columns rows colors chars-per-pixel */
"32 64 9 1 ",
"  c #08030B",
". c #431A00",
"X c #491814",
"o c #612824",
"O c #7F3620",
"+ c #9F5826",
"@ c #C67B2F",
"# c #FFAF46",
"$ c None",
/* pixels */
"$$$$$$$$$$$$$$XXXX$$$$$$$$$$$$$$",
"$$$$$$$$$$$$$$XXXX$$$$$$$$$$$$$$",
"$$$$$$$$$$$$XX++@@XX$$$$$$$$$$$$",
"$$$$$$$$$$$$XX++@@XX$$$$$$$$$$$$",
"$$$$$$$$$$$$XX++@@XX$$$$$$$$$$$$",
"$$$$$$$$$$$$XX++@@XX$$$$$$$$$$$$",
"$$$$$$$$$$$$XX++@@XX$$$$$$$$$$$$",
"$$$$$$$$$$$$XX++@@XX$$$$$$$$$$$$",
"$$$$$$$$$$$$oooooooo$$$$$$$$$$$$",
"$$$$$$$$$$$$oooooooo$$$$$$$$$$$$",
"$$$$$$$$$$oo++++@@@@oo$$$$$$$$$$",
"$$$$$$$$$$oo++++@@@@oo$$$$$$$$$$",
"$$$$$$$$oo++OO@@++OO@@oo$$$$$$$$",
"$$$$$$$$oo++OO@@++OO@@oo$$$$$$$$",
"$$$$$$$$oo++OO++@@++##oo$$$$$$$$",
"$$$$$$$$oo++OO++@@++##oo$$$$$$$$",
"$$$$$$$$XX@@++OOOO@@##oo$$$$$$$$",
"$$$$$$$$XX@@++OOOO@@##oo$$$$$$$$",
"$$$$$$$$XX++@@######@@XX$$$$$$$$",
"$$$$$$$$XX++@@######@@XX$$$$$$$$",
"$$$$$$$$XXOOOO++@@@@++XX$$$$$$$$",
"$$$$$$$$XXOOOO++@@@@++XX$$$$$$$$",
"$$$$$$$$XXooOOOO++++++XX$$$$$$$$",
"$$$$$$$$XXooOOOO++++++XX$$$$$$$$",
"$$$$$$$$XXooooOO++@@++XX$$$$$$$$",
"$$$$$$$$XXooooOO++@@++XX$$$$$$$$",
"$$$$$$$$XXooOO++@@##@@XX$$$$$$$$",
"$$$$$$$$XXooOO++@@##@@XX$$$$$$$$",
"$$$$$$$$XXoooo++++##@@XX$$$$$$$$",
"$$$$$$$$XXoooo++++##@@XX$$$$$$$$",
"$$$$$$$$XXooOO++@@@@@@XX$$$$$$$$",
"$$$$$$$$XXooOO++@@@@@@XX$$$$$$$$",
"$$$$$$$$XXooOO++++@@++XX$$$$$$$$",
"$$$$$$$$XXooOO++++@@++XX$$$$$$$$",
"$$$$$$$$XXooOOOO++@@@@XX$$$$$$$$",
"$$$$$$$$XXooOOOO++@@@@XX$$$$$$$$",
"$$$$$$$$XXooOOOO++@@++XX$$$$$$$$",
"$$$$$$$$XXooOOOO++@@++XX$$$$$$$$",
"$$$$$$$$XXooOO++@@++@@XX$$$$$$$$",
"$$$$$$$$XXooOO++@@++@@XX$$$$$$$$",
"$$$$$$$$XXoo++OO++@@++XX$$$$$$$$",
"$$$$$$$$XXoo++OO++@@++XX$$$$$$$$",
"$$$$$$$$XXooOO++++@@++XX$$$$$$$$",
"$$$$$$$$XXooOO++++@@++XX$$$$$$$$",
"$$$$$$$$XXooOO++++++++XX$$$$$$$$",
"$$$$$$$$XXooOO++++++++XX$$$$$$$$",
"$$$$$$$$XXooOOOO++@@++XX$$$$$$$$",
"$$$$$$$$XXooOOOO++@@++XX$$$$$$$$",
"$$$$$$$$XXooOO++++++++XX$$$$$$$$",
"$$$$$$$$XXooOO++++++++XX$$$$$$$$",
"$$$$$$$$XXooOOOO++++++XX$$$$$$$$",
"$$$$$$$$XXooOOOO++++++XX$$$$$$$$",
"$$$$$$$$XXooOOoo++OOOOXX$$$$$$$$",
"$$$$$$$$XXooOOoo++OOOOXX$$$$$$$$",
"$$$$$$$$XXooOOooOO++OOXX$$$$$$$$",
"$$$$$$$$XXooOOooOO++OOXX$$$$$$$$",
"$$$$$$$$  XXoooooooo..  $$$$$$$$",
"$$$$$$$$  XXoooooooo..  $$$$$$$$",
"$$$$$$$$$$  XXXXXXXX  $$$$$$$$$$",
"$$$$$$$$$$  XXXXXXXX  $$$$$$$$$$",
"$$$$$$$$$$$$$$$$$$$$$$$$$$$$$$$$",
"$$$$$$$$$$$$$$$$$$$$$$$$$$$$$$$$",
"$$$$$$$$$$$$$$$$$$$$$$$$$$$$$$$$",
"$$$$$$$$$$$$$$$$$$$$$$$$$$$$$$$$"
};
