/* XPM */
static char *result[] = {
/* columns rows colors chars-per-pixel */
"32 64 9 1 ",
"  c #08030B",
". c #431A00",
"X c #491814",
"o c #612824",
"O c #7F3620",
"+ c #9F5826",
"@ c #C67B2F",
"# c #FFAF46",
"$ c None",
/* pixels */
"$$$$$$$$$$$$$$$$$$$$$$$$$$$$$$$$",
"$$$$$$$$$$$$$$$$$$$$$$$$$$$$$$$$",
"$$$$$$$$$$$$$$XXXX$$$$$$$$$$$$$$",
"$$$$$$$$$$$$$$XXXX$$$$$$$$$$$$$$",
"$$$$$$$$$$$$XX++@@XX$$$$$$$$$$$$",
"$$$$$$$$$$$$XX++@@XX$$$$$$$$$$$$",
"$$$$$$$$$$$$XX++@@XX$$$$$$$$$$$$",
"$$$$$$$$$$$$XX++@@XX$$$$$$$$$$$$",
"$$$$$$$$$$$$oooooooo$$$$$$$$$$$$",
"$$$$$$$$$$$$oooooooo$$$$$$$$$$$$",
"$$$$$$$$$$oo++++@@@@oo$$$$$$$$$$",
"$$$$$$$$$$oo++++@@@@oo$$$$$$$$$$",
"$$$$$$$$oo++OO@@++OO@@oo$$$$$$$$",
"$$$$$$$$oo++OO@@++OO@@oo$$$$$$$$",
"$$$$$$$$oo++OO++@@++##oo$$$$$$$$",
"$$$$$$$$oo++OO++@@++##oo$$$$$$$$",
"$$$$$$$$XX@@++OOOO@@##oo$$$$$$$$",
"$$$$$$$$XX@@++OOOO@@##oo$$$$$$$$",
"$$$$$$$$XX++@@######@@XX$$$$$$$$",
"$$$$$$$$XX++@@######@@XX$$$$$$$$",
"$$$$$$$$XXOOOO++@@@@++XX$$$$$$$$",
"$$$$$$$$XXOOOO++@@@@++XX$$$$$$$$",
"XXXXXXXXXXooooOO++++++XXXXXXXXXX",
"XXXXXXXXXXooooOO++++++XXXXXXXXXX",
"++OOOOooooXXOOoo++@@++XX++++++++",
"++OOOOooooXXOOoo++@@++XX++++++++",
"++OOOOooooXXOO++++++++XX++@@@@@@",
"++OOOOooooXXOO++++++++XX++@@@@@@",
"ooooooooXXooOOOO++@@++XXoooooooo",
"ooooooooXXooOOOO++@@++XXoooooooo",
"ooooooooXXooOOOO++@@++XXoooooooo",
"ooooooooXXooOOOO++@@++XXoooooooo",
"XXXXXXXXXXooOO++++@@++XXXXXXXXXX",
"XXXXXXXXXXooOO++++@@++XXXXXXXXXX",
"$$$$$$$$XXooOOoo++++++XX$$$$$$$$",
"$$$$$$$$XXooOOoo++++++XX$$$$$$$$",
"$$$$$$$$XXooOOOO++@@++XX$$$$$$$$",
"$$$$$$$$XXooOOOO++@@++XX$$$$$$$$",
"XXXXXXXXXXooOO++++++++XXXXXXXXXX",
"XXXXXXXXXXooOO++++++++XXXXXXXXXX",
"++OOOOooXXoo++OO++@@++XX++++++++",
"++OOOOooXXoo++OO++@@++XX++++++++",
"++OOOOooXXooOO++++@@++XX++@@@@@@",
"++OOOOooXXooOO++++@@++XX++@@@@@@",
"ooooooooXXooOO++++++++XXoooooooo",
"ooooooooXXooOO++++++++XXoooooooo",
"ooooooooXXooOOOO++@@++XXoooooooo",
"ooooooooXXooOOOO++@@++XXoooooooo",
"XXXXXXXXXXooOO++++@@++XXXXXXXXXX",
"XXXXXXXXXXooOO++++@@++XXXXXXXXXX",
"$$$$$$$$XXooOOOO++++++XX$$$$$$$$",
"$$$$$$$$XXooOOOO++++++XX$$$$$$$$",
"$$$$$$$$XXooOOoo++OOOOXX$$$$$$$$",
"$$$$$$$$XXooOOoo++OOOOXX$$$$$$$$",
"$$$$$$$$XXooOOooOO++OOXX$$$$$$$$",
"$$$$$$$$XXooOOooOO++OOXX$$$$$$$$",
"$$$$$$$$  XXoooooooo..  $$$$$$$$",
"$$$$$$$$  XXoooooooo..  $$$$$$$$",
"$$$$$$$$$$  XXXXXXXX  $$$$$$$$$$",
"$$$$$$$$$$  XXXXXXXX  $$$$$$$$$$",
"$$$$$$$$$$$$$$$$$$$$$$$$$$$$$$$$",
"$$$$$$$$$$$$$$$$$$$$$$$$$$$$$$$$",
"$$$$$$$$$$$$$$$$$$$$$$$$$$$$$$$$",
"$$$$$$$$$$$$$$$$$$$$$$$$$$$$$$$$"
};
