/* XPM */
static char *result[] = {
/* columns rows colors chars-per-pixel */
"32 32 15 1 ",
"  c #083108",
". c #0A3523",
"X c #5C0C00",
"o c #43061C",
"O c #185812",
"+ c #3B7115",
"@ c #96301E",
"# c #C15400",
"$ c #DE6D00",
"% c #3B9103",
"& c #76B707",
"* c #84B908",
"= c #EF8B00",
"- c #ADDB0C",
"; c None",
/* pixels */
";;;;;;;;;;..OO..;;..%%&&%%....;;",
";;;;;;;;;;..OO..;;..%%&&%%....;;",
";;;;;;;;;;;;  OOooooOO..&&&&..;;",
";;;;;;;;;;;;  OOooooOO..&&&&..;;",
";;;;;;oooooo  OO  XXoooooo..;;;;",
";;;;;;oooooo  OO  XXoooooo..;;;;",
";;;;oo@@@@##@@    ##$$==@@oo;;;;",
";;;;oo@@@@##@@    ##$$==@@oo;;;;",
";;oo@@@@####@@####@@##$$==@@XX;;",
";;oo@@@@####@@####@@##$$==@@XX;;",
";;oo@@##$$@@##$$==$$@@$$$$$$XX;;",
";;oo@@##$$@@##$$==$$@@$$$$$$XX;;",
"oo@@@@$$##@@$$$$$$==@@##$$==##XX",
"oo@@@@$$##@@$$$$$$==@@##$$==##XX",
"oo@@##$$@@##$$$$$$==##@@$$==$$XX",
"oo@@##$$@@##$$$$$$==##@@$$==$$XX",
"oo##@@$$@@##$$$$$$==$$@@$$$$==XX",
"oo##@@$$@@##$$$$$$==$$@@$$$$==XX",
"oo@@@@##@@++##$$$$$$$$@@$$$$==XX",
"oo@@@@##@@++##$$$$$$$$@@$$$$==XX",
"oooo....++--++$$$$$$$$@@$$$$$$XX",
"oooo....++--++$$$$$$$$@@$$$$$$XX",
";;..%%&&..**--++######@@##$$##..",
";;..%%&&..**--++######@@##$$##..",
"..OO%%&&&&..%%####....@@####XX..",
"..OO%%&&&&..%%####....@@####XX..",
"..OOOO..%%..OO%%..%%%%..XXXXOO..",
"..OOOO..%%..OO%%..%%%%..XXXXOO..",
"..OO..;;..oo......%%OO..ooOO%%..",
"..OO..;;..oo......%%OO..ooOO%%..",
";;..;;;;;;;;oooooo..%%%%OOOO....",
";;..;;;;;;;;oooooo..%%%%OOOO...."
};
